<svg xmlns="http://www.w3.org/2000/svg" version="1.1" xmlns:xlink="http://www.w3.org/1999/xlink" xmlns:svgjs="http://svgjs.dev/svgjs" width="512" height="512"><svg width="512" height="512" viewBox="0 0 512 512" fill="none" xmlns="http://www.w3.org/2000/svg">
<path fill-rule="evenodd" clip-rule="evenodd" d="M279.258 512C409.743 500.225 512 390.34 512 256.522C512 114.849 397.385 0 256 0C114.615 0 0 114.849 0 256.522C0 382.856 91.1387 487.859 211.127 509.117L74.4982 143.227C72.5662 138.054 75.1922 132.287 80.3635 130.349L127.019 112.855C128.846 112.171 130.831 112.035 132.732 112.466L256.927 140.585C260.211 141.328 262.898 143.676 264.076 146.832L341.333 353.724C342.511 356.879 342.022 360.418 340.032 363.139L266.187 464.1C264.197 466.821 263.708 470.36 264.887 473.515L279.258 512ZM389.769 295.138C385.07 301.563 375.125 300.197 372.343 292.745L327.417 172.435C324.634 164.982 331.241 157.411 338.995 159.166L453.033 184.986C460.047 186.574 463.133 194.836 458.882 200.648L389.769 295.138Z" fill="#03635b"></path>
</svg><style>@media (prefers-color-scheme: light) { :root { filter: none; } }
@media (prefers-color-scheme: dark) { :root { filter: none; } }
</style></svg>